PathFileType	4	(X/Y/Z)	 s06c0201.trc
DataRate	CameraRate	NumFrames	NumMarkers	Units	OrigDataRate	OrigDataStartFrame	OrigNumFrames
200	200	4	49	mm	200	1751	2000
Frame#	Time	racr			lacr			c7			jug			rlel			rdr			llel			ldr			s2			lic			ric			lasi			rasi			rpsi			lpsi			rgt			lgt			rth1			rth2			rth3			rth4			rlfc			rmfc			rsh1			rsh2			rsh3			rsh4			rlmal			rmmal			rcal			rtoe			rmt5			lth1			lth2			lth4			lth3			llfc			lmfc			llmal			lcal			lmt5			lsh1			lsh2			lsh3			lsh4			ltoe			SBIKE			LBIKE			RBIKE			
		X1	Y1	Z1	X2	Y2	Z2	X3	Y3	Z3	X4	Y4	Z4	X5	Y5	Z5	X6	Y6	Z6	X7	Y7	Z7	X8	Y8	Z8	X9	Y9	Z9	X10	Y10	Z10	X11	Y11	Z11	X12	Y12	Z12	X13	Y13	Z13	X14	Y14	Z14	X15	Y15	Z15	X16	Y16	Z16	X17	Y17	Z17	X18	Y18	Z18	X19	Y19	Z19	X20	Y20	Z20	X21	Y21	Z21	X22	Y22	Z22	X23	Y23	Z23	X24	Y24	Z24	X25	Y25	Z25	X26	Y26	Z26	X27	Y27	Z27	X28	Y28	Z28	X29	Y29	Z29	X30	Y30	Z30	X31	Y31	Z31	X32	Y32	Z32	X33	Y33	Z33	X34	Y34	Z34	X35	Y35	Z35	X36	Y36	Z36	X37	Y37	Z37	X38	Y38	Z38	X39	Y39	Z39	X40	Y40	Z40	X41	Y41	Z41	X42	Y42	Z42	X43	Y43	Z43	X44	Y44	Z44	X45	Y45	Z45	X46	Y46	Z46	X47	Y47	Z47	X48	Y48	Z48	X49	Y49	Z49	
1751	8.7550	577.819584	1214.893643	-92.094507	569.620279	1186.471803	-404.930023	568.824750	1303.179614	-247.532007	531.031598	1131.630916	-230.016721	495.073717	1009.832607	71.387399	658.217053	922.799942	-54.374557	455.132162	955.035115	-509.913251	643.311913	919.762830	-400.317309	6.362416	1135.522841	-188.669974	151.884823	1104.154417	-383.188189	162.202489	1101.617536	-41.758204	179.943646	1055.941161	-344.908998	186.595348	1060.118167	-79.278335	44.192567	1178.594728	-164.698563	35.110767	1172.675260	-224.847336	135.241472	1024.110923	-2.537629	132.551873	1043.626380	-399.815962	237.732842	951.681163	-5.534202	317.771662	910.979975	-17.119567	365.227482	838.608628	-23.076254	337.030883	937.683030	-35.598435	399.485446	747.664659	-50.047180	385.111839	732.323893	-161.466952	310.759968	664.418193	-28.817884	252.435650	604.332106	-53.402701	169.667419	573.079130	-55.298791	264.794403	591.932572	-90.381767	96.958182	542.027286	-60.717942	123.272340	516.037829	-149.447093	38.317485	573.483467	-108.285921	163.595559	326.988219	-98.479933	95.887761	402.924250	-33.665605	191.814640	930.530760	-414.454658	264.015412	882.062022	-409.349455	291.225275	905.447791	-399.067206	302.743272	801.747488	-404.123038	350.311243	692.245695	-385.399612	358.501691	674.162060	-271.929538	265.037246	329.034272	-379.029657	191.634815	307.412475	-332.199348	378.131536	246.074816	-406.979506	328.029446	585.864974	-407.222674	329.742840	500.431305	-388.940807	290.086355	422.705200	-392.354843	357.130027	498.101131	-360.159526	464.870836	241.516677	-349.364574	-203.525966	869.754707	-212.150021	-48.716860	83.857534	-419.270134	-50.273401	79.599075	-21.932778	
1752	8.7600	578.390275	1214.874264	-91.905343	570.184680	1185.735070	-404.191082	569.629967	1303.107866	-247.163862	531.154446	1131.365903	-230.191180	495.682588	1009.943847	71.666548	658.547257	923.144923	-54.433529	455.156513	954.935332	-509.700712	643.432009	919.827410	-400.266196	6.720676	1136.752013	-189.906455	152.626408	1104.642851	-383.740005	161.571408	1103.996307	-41.727626	180.902443	1056.624767	-345.183886	186.116805	1062.069745	-78.711872	44.606828	1179.967532	-165.955412	35.759679	1173.743615	-226.176460	134.948246	1028.083628	-2.388126	132.798112	1042.984012	-399.407261	237.843441	957.212775	-5.573493	318.896374	918.266501	-16.326643	367.734513	846.774470	-22.230294	337.829764	945.468928	-34.358469	404.211474	756.944558	-49.538214	390.854930	741.311194	-161.265549	315.492725	673.298970	-28.647263	257.372562	613.340079	-53.219496	174.481467	582.514276	-55.146168	269.675012	601.067103	-90.272248	101.396598	551.729617	-60.672188	128.043999	525.957974	-149.296818	42.545660	582.726112	-107.936178	169.807907	337.273381	-98.504207	101.483327	412.630270	-33.623625	189.474424	928.835281	-414.046403	260.487308	878.736571	-409.285297	288.298252	901.548352	-399.109515	297.345323	797.438703	-404.048166	343.220339	685.758458	-385.355739	350.495083	667.528560	-272.329465	261.405120	321.956109	-378.971237	188.306754	301.837078	-331.966952	373.452581	236.474786	-406.855373	321.793382	579.030006	-407.190009	324.424653	493.726670	-389.010431	285.478451	415.644224	-392.271135	351.774118	491.671973	-360.114681	460.047484	229.941955	-349.222284	-203.524841	869.735631	-212.107010	-48.716559	83.872468	-419.254524	-50.261515	79.567186	-21.903703	
1753	8.7650	578.922383	1214.958054	-91.664262	570.626501	1185.235415	-403.499717	570.619983	1303.136416	-246.655280	531.420742	1131.309390	-230.174972	496.068180	1010.027726	71.600454	659.019920	923.590881	-54.429797	455.129649	955.158391	-509.482034	643.468030	920.029594	-400.359147	6.512026	1138.958512	-190.350113	153.509147	1105.147469	-384.293027	159.739309	1106.488965	-40.157644	181.790288	1057.048147	-345.646998	185.749979	1064.887508	-76.545722	44.749645	1181.275589	-167.516018	37.035581	1174.763338	-227.308804	134.472857	1032.179189	-2.149634	133.151655	1042.301560	-399.583726	237.723964	962.494033	-6.050876	320.003327	925.626507	-15.516922	370.316694	855.299079	-21.322183	338.560869	953.315767	-33.117091	409.569132	766.131592	-49.175039	396.633594	750.689833	-161.187268	320.862523	682.175740	-28.471385	262.549280	622.438829	-53.129540	179.635399	591.809900	-55.042726	274.844659	610.174345	-90.100691	106.333547	561.162196	-60.566190	133.152239	535.572285	-149.254367	47.082209	591.573952	-107.965884	176.606448	347.311045	-98.649165	108.018534	422.021931	-33.417845	187.339180	927.261036	-413.799978	257.098126	875.402461	-409.398307	285.471510	897.521492	-399.134265	291.996663	792.946678	-404.112744	335.768987	679.434714	-385.529339	342.168841	661.203485	-272.614019	257.310101	315.310207	-379.083895	184.454386	296.592122	-331.856954	368.206305	227.181770	-406.699063	315.213046	572.542956	-407.367997	318.774179	487.231641	-389.195514	280.509544	408.688661	-392.256179	346.269697	485.472157	-360.250836	454.622913	218.734517	-349.188030	-203.523031	869.747667	-212.118970	-48.710205	83.870656	-419.239085	-50.258278	79.629481	-21.902396	
1754	8.7700	579.387205	1215.233503	-91.481433	571.136137	1185.051202	-402.713938	571.730088	1303.316119	-246.236693	531.509640	1131.348999	-230.428305	496.734033	1010.385947	71.475764	659.483120	924.497591	-54.832993	455.122954	955.619611	-509.207751	643.598017	920.150286	-400.392347	6.983269	1140.166835	-191.885103	154.453938	1105.696289	-384.846291	158.988380	1108.519967	-41.055840	182.716526	1057.587339	-346.000670	184.558462	1066.051345	-76.792367	45.679158	1182.637586	-169.215245	38.100155	1175.772961	-228.925938	133.856341	1036.133630	-2.144086	133.640290	1041.359630	-399.835882	239.073274	969.196976	-5.128440	321.049852	933.053206	-14.571104	373.015844	863.891032	-20.585235	339.136935	961.231400	-31.951320	414.894652	775.691418	-48.834676	398.729836	760.259155	-160.205535	326.394886	691.183104	-28.373068	268.060452	631.450804	-52.995156	185.095680	600.831278	-54.943366	280.136300	619.968662	-89.461432	111.493674	570.081680	-60.635400	138.921052	544.992981	-149.469526	51.776113	599.811261	-108.266181	184.083860	357.244695	-98.646467	114.211525	431.146097	-33.770727	185.453956	925.601072	-413.898452	253.825388	871.945634	-409.522640	282.728454	893.402506	-399.356843	286.591228	788.570351	-403.827160	328.117047	673.343346	-385.789307	333.896844	654.864685	-272.903580	252.769785	308.791098	-378.919027	180.130453	291.705354	-331.875458	362.324616	218.591129	-407.210313	308.129791	566.230146	-407.523424	312.638045	480.932431	-389.477651	275.118767	402.061161	-392.335529	340.102209	479.523344	-360.506788	448.647249	207.937418	-349.094022	-203.515306	869.763044	-212.158625	-48.706513	83.910962	-419.251204	-50.243935	79.640795	-21.913776	
